<svg width="25" height="24" viewBox="0 0 25 24" fill="none" xmlns="http://www.w3.org/2000/svg">
<path d="M11.9688 20.4297C16.3828 20.4297 20.0391 16.7812 20.0391 12.3594C20.0391 7.94531 16.3828 4.28906 11.9609 4.28906C7.54688 4.28906 3.89844 7.94531 3.89844 12.3594C3.89844 16.7812 7.55469 20.4297 11.9688 20.4297ZM9.40625 15.6719C8.99219 15.6719 8.67188 15.3438 8.67188 14.9219C8.67188 14.7344 8.75 14.5547 8.89062 14.4141L10.9297 12.3672L8.89062 10.3281C8.75 10.1875 8.67188 10.0078 8.67188 9.8125C8.67188 9.39844 8.99219 9.08594 9.40625 9.08594C9.61719 9.08594 9.78125 9.15625 9.92188 9.29688L11.9688 11.3359L14.0312 9.28906C14.1797 9.14062 14.3438 9.07031 14.5547 9.07031C14.9609 9.07031 15.2812 9.39062 15.2812 9.80469C15.2812 10 15.2188 10.1719 15.0703 10.3203L13.0234 12.3672L15.0625 14.4062C15.2031 14.5469 15.2812 14.7266 15.2812 14.9219C15.2812 15.3438 14.9531 15.6719 14.5391 15.6719C14.3281 15.6719 14.1406 15.5938 14.0078 15.4531L11.9688 13.4141L9.94531 15.4531C9.79688 15.5938 9.61719 15.6719 9.40625 15.6719Z" fill="#C4C4C4"/>
</svg>
